<!-- Generated by IcoMoon.io -->
<svg version="1.1" xmlns="http://www.w3.org/2000/svg" width="37" height="32" viewBox="0 0 37 32">
<title>icon_inbox</title>
<path d="M34.286 0h-32c-1.262 0-2.286 1.023-2.286 2.286v0 27.429c0 1.262 1.023 2.286 2.286 2.286v0h32c1.262 0 2.286-1.023 2.286-2.286v0-27.429c0-1.262-1.023-2.286-2.286-2.286v0zM32 27.429h-27.429v-14.347l12.571 7.189c0.326 0.189 0.717 0.301 1.134 0.301s0.808-0.112 1.145-0.307l-0.011 0.006 12.59-7.189zM32 7.817l-13.714 7.838-13.714-7.838v-3.246h27.429z"></path>
</svg>
