<!-- Generated by IcoMoon.io -->
<svg version="1.1" xmlns="http://www.w3.org/2000/svg" width="35" height="32" viewBox="0 0 35 32">
<title>icon_process</title>
<path d="M28.392 27.043c-2.834 2.786-6.723 4.507-11.014 4.507-0.010 0-0.019 0-0.029-0h0.002c-0.077 0.001-0.168 0.002-0.26 0.002-4.218 0-8.034-1.725-10.78-4.507l-0.002-0.002c-2.263-2.233-3.81-5.185-4.272-8.485l-0.009-0.078 4.507-0.676c0.477 2.384 1.592 4.454 3.159 6.088l-0.004-0.004c2.033 1.985 4.817 3.21 7.887 3.21s5.853-1.225 7.889-3.212l-0.002 0.002-4.732-4.732 14.422-1.577-1.803 14.422zM1.577 0.002l4.957 4.957c2.87-2.821 6.809-4.563 11.154-4.563s8.284 1.742 11.156 4.565l-0.002-0.002c2.261 2.233 3.809 5.185 4.272 8.484l0.009 0.078-4.507 0.676c-0.476-2.384-1.592-4.454-3.159-6.088l0.004 0.004c-2.033-1.985-4.817-3.21-7.887-3.21s-5.853 1.225-7.889 3.212l0.002-0.002 4.732 4.732-14.422 1.577z"></path>
</svg>
